<mxfile host="65bd71144e">
    <diagram id="-mWAd6ci-BpecKHYNUev" name="Página-1">
        <mxGraphModel dx="1292" dy="524" grid="0" gridSize="10" guides="1" tooltips="1" connect="1" arrows="1" fold="1" page="0" pageScale="1" pageWidth="827" pageHeight="1169" math="0" shadow="0">
            <root>
                <mxCell id="0"/>
                <mxCell id="1" parent="0"/>
                <mxCell id="33" style="edgeStyle=none;html=1;endArrow=none;endFill=0;" edge="1" parent="1" source="2" target="5">
                    <mxGeometry relative="1" as="geometry"/>
                </mxCell>
                <mxCell id="34" style="edgeStyle=none;html=1;entryX=0.5;entryY=0;entryDx=0;entryDy=0;endArrow=none;endFill=0;" edge="1" parent="1" source="2" target="29">
                    <mxGeometry relative="1" as="geometry"/>
                </mxCell>
                <mxCell id="2" value="Usuario" style="swimlane;fontStyle=0;childLayout=stackLayout;horizontal=1;startSize=26;fillColor=none;horizontalStack=0;resizeParent=1;resizeParentMax=0;resizeLast=0;collapsible=1;marginBottom=0;" parent="1" vertex="1">
                    <mxGeometry x="21" y="245" width="140" height="170" as="geometry"/>
                </mxCell>
                <mxCell id="3" value="- DNI (pk)&#10;- nombre&#10;- apellido&#10;- fecha_de_nacimiento&#10;- domicilio&#10;- departamento&#10;- email&#10;- contrasena&#10;- rol_id (fk)" style="text;strokeColor=none;fillColor=none;align=left;verticalAlign=top;spacingLeft=4;spacingRight=4;overflow=hidden;rotatable=0;points=[[0,0.5],[1,0.5]];portConstraint=eastwest;" parent="2" vertex="1">
                    <mxGeometry y="26" width="140" height="144" as="geometry"/>
                </mxCell>
                <mxCell id="4" value="Rol" style="swimlane;fontStyle=0;childLayout=stackLayout;horizontal=1;startSize=26;fillColor=none;horizontalStack=0;resizeParent=1;resizeParentMax=0;resizeLast=0;collapsible=1;marginBottom=0;" parent="1" vertex="1">
                    <mxGeometry x="21" y="101" width="140" height="100" as="geometry"/>
                </mxCell>
                <mxCell id="5" value="- id_rol (pk)&#10;- nombre" style="text;strokeColor=none;fillColor=none;align=left;verticalAlign=top;spacingLeft=4;spacingRight=4;overflow=hidden;rotatable=0;points=[[0,0.5],[1,0.5]];portConstraint=eastwest;" parent="4" vertex="1">
                    <mxGeometry y="26" width="140" height="74" as="geometry"/>
                </mxCell>
                <mxCell id="6" value="Curso" style="swimlane;fontStyle=0;childLayout=stackLayout;horizontal=1;startSize=26;fillColor=none;horizontalStack=0;resizeParent=1;resizeParentMax=0;resizeLast=0;collapsible=1;marginBottom=0;" parent="1" vertex="1">
                    <mxGeometry x="450" y="230" width="140" height="210" as="geometry"/>
                </mxCell>
                <mxCell id="7" value="- id_curso (pk)&#10;- titulo&#10;- descripcion&#10;- imagen&#10;- fecha_inicio&#10;- fecha_finalizacion&#10;- cupo_maximo&#10;- aula&#10;- horario&#10;- categoria_id (fk)&#10;- tallerista_id (fk)" style="text;strokeColor=none;fillColor=none;align=left;verticalAlign=top;spacingLeft=4;spacingRight=4;overflow=hidden;rotatable=0;points=[[0,0.5],[1,0.5]];portConstraint=eastwest;" parent="6" vertex="1">
                    <mxGeometry y="26" width="140" height="184" as="geometry"/>
                </mxCell>
                <mxCell id="42" value="" style="edgeStyle=none;html=1;endArrow=none;endFill=0;" edge="1" parent="1" source="8" target="23">
                    <mxGeometry relative="1" as="geometry"/>
                </mxCell>
                <mxCell id="8" value="Modulo" style="swimlane;fontStyle=0;childLayout=stackLayout;horizontal=1;startSize=26;fillColor=none;horizontalStack=0;resizeParent=1;resizeParentMax=0;resizeLast=0;collapsible=1;marginBottom=0;" parent="1" vertex="1">
                    <mxGeometry x="660" y="260" width="140" height="140" as="geometry"/>
                </mxCell>
                <mxCell id="9" value="- id_modulo (pk)&#10;- titulo&#10;- descripcion&#10;- visibilidad&#10;- duracion&#10;- curso_id (fk)" style="text;strokeColor=none;fillColor=none;align=left;verticalAlign=top;spacingLeft=4;spacingRight=4;overflow=hidden;rotatable=0;points=[[0,0.5],[1,0.5]];portConstraint=eastwest;" parent="8" vertex="1">
                    <mxGeometry y="26" width="140" height="114" as="geometry"/>
                </mxCell>
                <mxCell id="40" value="" style="edgeStyle=none;html=1;endArrow=none;endFill=0;" edge="1" parent="1" source="10" target="7">
                    <mxGeometry relative="1" as="geometry"/>
                </mxCell>
                <mxCell id="10" value="Categoria" style="swimlane;fontStyle=0;childLayout=stackLayout;horizontal=1;startSize=26;fillColor=none;horizontalStack=0;resizeParent=1;resizeParentMax=0;resizeLast=0;collapsible=1;marginBottom=0;" parent="1" vertex="1">
                    <mxGeometry x="450" y="480" width="140" height="110" as="geometry"/>
                </mxCell>
                <mxCell id="11" value="-id (PK)&#10;- programacion&#10;- diseño&#10;- audiovisual&#10;- electrónica" style="text;strokeColor=none;fillColor=none;align=left;verticalAlign=top;spacingLeft=4;spacingRight=4;overflow=hidden;rotatable=0;points=[[0,0.5],[1,0.5]];portConstraint=eastwest;" parent="10" vertex="1">
                    <mxGeometry y="26" width="140" height="84" as="geometry"/>
                </mxCell>
                <mxCell id="18" value="Curso_Usuario" style="swimlane;fontStyle=0;childLayout=stackLayout;horizontal=1;startSize=26;fillColor=none;horizontalStack=0;resizeParent=1;resizeParentMax=0;resizeLast=0;collapsible=1;marginBottom=0;" parent="1" vertex="1">
                    <mxGeometry x="240" y="260" width="140" height="90" as="geometry"/>
                </mxCell>
                <mxCell id="19" value="- id_curso_usuario (pk)&#10;- DNI (fk)&#10;- curso_id (fk)&#10;" style="text;strokeColor=none;fillColor=none;align=left;verticalAlign=top;spacingLeft=4;spacingRight=4;overflow=hidden;rotatable=0;points=[[0,0.5],[1,0.5]];portConstraint=eastwest;" parent="18" vertex="1">
                    <mxGeometry y="26" width="140" height="64" as="geometry"/>
                </mxCell>
                <mxCell id="22" value="Bloque" style="swimlane;fontStyle=0;childLayout=stackLayout;horizontal=1;startSize=26;fillColor=none;horizontalStack=0;resizeParent=1;resizeParentMax=0;resizeLast=0;collapsible=1;marginBottom=0;" vertex="1" parent="1">
                    <mxGeometry x="660" y="88" width="140" height="100" as="geometry"/>
                </mxCell>
                <mxCell id="23" value="- id_bloque (pk)&#10;- titulo&#10;- visibilidad" style="text;strokeColor=none;fillColor=none;align=left;verticalAlign=top;spacingLeft=4;spacingRight=4;overflow=hidden;rotatable=0;points=[[0,0.5],[1,0.5]];portConstraint=eastwest;" vertex="1" parent="22">
                    <mxGeometry y="26" width="140" height="74" as="geometry"/>
                </mxCell>
                <mxCell id="36" value="" style="edgeStyle=none;html=1;endArrow=none;endFill=0;" edge="1" parent="1" source="27" target="19">
                    <mxGeometry relative="1" as="geometry"/>
                </mxCell>
                <mxCell id="27" value="Evento" style="swimlane;fontStyle=0;childLayout=stackLayout;horizontal=1;startSize=26;fillColor=none;horizontalStack=0;resizeParent=1;resizeParentMax=0;resizeLast=0;collapsible=1;marginBottom=0;" vertex="1" parent="1">
                    <mxGeometry x="240" y="400" width="140" height="190" as="geometry"/>
                </mxCell>
                <mxCell id="28" value="- id_evento (pk)&#10;- titulo&#10;- descripcion&#10;- imagen&#10;- categoría&#10;- cupo_maximo&#10;- aula&#10;- duracion&#10;-  horario&#10;- tallerista_id (fk)" style="text;strokeColor=none;fillColor=none;align=left;verticalAlign=top;spacingLeft=4;spacingRight=4;overflow=hidden;rotatable=0;points=[[0,0.5],[1,0.5]];portConstraint=eastwest;" vertex="1" parent="27">
                    <mxGeometry y="26" width="140" height="164" as="geometry"/>
                </mxCell>
                <mxCell id="29" value="Usuario_Evento" style="swimlane;fontStyle=0;childLayout=stackLayout;horizontal=1;startSize=26;fillColor=none;horizontalStack=0;resizeParent=1;resizeParentMax=0;resizeLast=0;collapsible=1;marginBottom=0;" vertex="1" parent="1">
                    <mxGeometry x="21" y="490" width="140" height="90" as="geometry"/>
                </mxCell>
                <mxCell id="30" value="- id_usuario_evento (pk)&#10;- DNI (fk)&#10;- evento_id (fk)&#10;" style="text;strokeColor=none;fillColor=none;align=left;verticalAlign=top;spacingLeft=4;spacingRight=4;overflow=hidden;rotatable=0;points=[[0,0.5],[1,0.5]];portConstraint=eastwest;" vertex="1" parent="29">
                    <mxGeometry y="26" width="140" height="64" as="geometry"/>
                </mxCell>
                <mxCell id="31" value="Tipo_Bloque" style="swimlane;fontStyle=0;childLayout=stackLayout;horizontal=1;startSize=26;fillColor=none;horizontalStack=0;resizeParent=1;resizeParentMax=0;resizeLast=0;collapsible=1;marginBottom=0;" vertex="1" parent="1">
                    <mxGeometry x="449" y="88" width="140" height="100" as="geometry"/>
                </mxCell>
                <mxCell id="32" value="- id_tipo_bloque (pk)&#10;- tipo&#10;- bloque_id (fk)" style="text;strokeColor=none;fillColor=none;align=left;verticalAlign=top;spacingLeft=4;spacingRight=4;overflow=hidden;rotatable=0;points=[[0,0.5],[1,0.5]];portConstraint=eastwest;" vertex="1" parent="31">
                    <mxGeometry y="26" width="140" height="74" as="geometry"/>
                </mxCell>
                <mxCell id="35" style="edgeStyle=none;html=1;entryX=-0.018;entryY=0.785;entryDx=0;entryDy=0;entryPerimeter=0;endArrow=none;endFill=0;" edge="1" parent="1" source="3" target="19">
                    <mxGeometry relative="1" as="geometry"/>
                </mxCell>
                <mxCell id="37" value="" style="edgeStyle=none;html=1;endArrow=none;endFill=0;" edge="1" parent="1" source="28" target="30">
                    <mxGeometry relative="1" as="geometry"/>
                </mxCell>
                <mxCell id="38" value="" style="edgeStyle=none;html=1;endArrow=none;endFill=0;" edge="1" parent="1" source="28" target="11">
                    <mxGeometry relative="1" as="geometry"/>
                </mxCell>
                <mxCell id="39" value="" style="edgeStyle=none;html=1;endArrow=none;endFill=0;" edge="1" parent="1" source="19" target="7">
                    <mxGeometry relative="1" as="geometry"/>
                </mxCell>
                <mxCell id="41" value="" style="edgeStyle=none;html=1;endArrow=none;endFill=0;" edge="1" parent="1" source="7" target="9">
                    <mxGeometry relative="1" as="geometry"/>
                </mxCell>
                <mxCell id="45" style="edgeStyle=none;html=1;endArrow=none;endFill=0;entryX=1.008;entryY=0.603;entryDx=0;entryDy=0;entryPerimeter=0;" edge="1" parent="1" source="23" target="32">
                    <mxGeometry relative="1" as="geometry"/>
                </mxCell>
                <mxCell id="46" value="1" style="text;html=1;align=center;verticalAlign=middle;resizable=0;points=[];autosize=1;strokeColor=none;fillColor=none;" vertex="1" parent="1">
                    <mxGeometry x="86" y="415" width="30" height="30" as="geometry"/>
                </mxCell>
                <mxCell id="47" value="*" style="text;html=1;align=center;verticalAlign=middle;resizable=0;points=[];autosize=1;strokeColor=none;fillColor=none;" vertex="1" parent="1">
                    <mxGeometry x="88" y="464" width="30" height="30" as="geometry"/>
                </mxCell>
                <mxCell id="48" value="*" style="text;html=1;align=center;verticalAlign=middle;resizable=0;points=[];autosize=1;strokeColor=none;fillColor=none;" vertex="1" parent="1">
                    <mxGeometry x="158" y="506" width="30" height="30" as="geometry"/>
                </mxCell>
                <mxCell id="49" value="1" style="text;html=1;align=center;verticalAlign=middle;resizable=0;points=[];autosize=1;strokeColor=none;fillColor=none;" vertex="1" parent="1">
                    <mxGeometry x="210" y="494" width="30" height="30" as="geometry"/>
                </mxCell>
                <mxCell id="50" value="1" style="text;html=1;align=center;verticalAlign=middle;resizable=0;points=[];autosize=1;strokeColor=none;fillColor=none;" vertex="1" parent="1">
                    <mxGeometry x="379" y="490" width="30" height="30" as="geometry"/>
                </mxCell>
                <mxCell id="51" value="1" style="text;html=1;align=center;verticalAlign=middle;resizable=0;points=[];autosize=1;strokeColor=none;fillColor=none;" vertex="1" parent="1">
                    <mxGeometry x="420" y="311" width="30" height="30" as="geometry"/>
                </mxCell>
                <mxCell id="52" value="1" style="text;html=1;align=center;verticalAlign=middle;resizable=0;points=[];autosize=1;strokeColor=none;fillColor=none;" vertex="1" parent="1">
                    <mxGeometry x="158" y="313" width="30" height="30" as="geometry"/>
                </mxCell>
                <mxCell id="53" value="1" style="text;html=1;align=center;verticalAlign=middle;resizable=0;points=[];autosize=1;strokeColor=none;fillColor=none;" vertex="1" parent="1">
                    <mxGeometry x="590" y="320" width="30" height="30" as="geometry"/>
                </mxCell>
                <mxCell id="54" value="1" style="text;html=1;align=center;verticalAlign=middle;resizable=0;points=[];autosize=1;strokeColor=none;fillColor=none;" vertex="1" parent="1">
                    <mxGeometry x="630" y="134" width="30" height="30" as="geometry"/>
                </mxCell>
                <mxCell id="55" value="*" style="text;html=1;align=center;verticalAlign=middle;resizable=0;points=[];autosize=1;strokeColor=none;fillColor=none;" vertex="1" parent="1">
                    <mxGeometry x="210" y="310" width="30" height="30" as="geometry"/>
                </mxCell>
                <mxCell id="56" value="*" style="text;html=1;align=center;verticalAlign=middle;resizable=0;points=[];autosize=1;strokeColor=none;fillColor=none;" vertex="1" parent="1">
                    <mxGeometry x="381" y="304" width="30" height="30" as="geometry"/>
                </mxCell>
                <mxCell id="57" value="*" style="text;html=1;align=center;verticalAlign=middle;resizable=0;points=[];autosize=1;strokeColor=none;fillColor=none;" vertex="1" parent="1">
                    <mxGeometry x="420" y="506" width="30" height="30" as="geometry"/>
                </mxCell>
                <mxCell id="58" value="*" style="text;html=1;align=center;verticalAlign=middle;resizable=0;points=[];autosize=1;strokeColor=none;fillColor=none;" vertex="1" parent="1">
                    <mxGeometry x="630" y="320" width="30" height="30" as="geometry"/>
                </mxCell>
                <mxCell id="59" value="*" style="text;html=1;align=center;verticalAlign=middle;resizable=0;points=[];autosize=1;strokeColor=none;fillColor=none;" vertex="1" parent="1">
                    <mxGeometry x="586" y="136" width="30" height="30" as="geometry"/>
                </mxCell>
            </root>
        </mxGraphModel>
    </diagram>
</mxfile>